<svg xmlns="http://www.w3.org/2000/svg" width="600" height="600" version="1.1"><path fill="#911526" d="M0 0 C1.24954438 0.66309518 2.49989417 1.3246745 3.75097656 1.98486328 C6.38626133 3.37645086 9.01846318 4.77363727 11.64892578 6.17431641 C17.69371779 9.38444057 23.78548452 12.50338129 29.87460327 15.62832642 C33.35041098 17.41294493 36.82344612 19.20294486 40.296875 20.9921875 C41.69725181 21.71324297 43.09764244 22.43427162 44.49804688 23.15527344 C52.08100016 27.0596783 59.66283618 30.96625247 67.24487305 34.87243652 C69.30386665 35.93320052 71.36286781 36.99394986 73.421875 38.0546875 C74.441604 38.58002075 74.441604 38.58002075 75.48193359 39.1159668 C79.64694423 41.2615634 83.8122195 43.40664535 87.97769165 45.55134583 C102.85755102 53.2126563 117.73193852 60.88423379 132.59472656 68.57861328 C141.37090147 73.12040538 150.1567346 77.64325035 158.94570923 82.16021729 C163.37849187 84.43867203 167.81047628 86.71867934 172.24253845 88.99853516 C175.76298826 90.80925412 179.28393686 92.61898727 182.80615234 94.42626953 C191.11617901 98.69099889 199.41015564 102.98457365 207.6875 107.3125 C208.56035645 107.76447754 209.43321289 108.21645508 210.33251953 108.68212891 C226.14216753 116.90831348 235.88511475 126.64586142 241.92578125 143.671875 C243.68334634 149.76476731 243.83404989 155.61872027 243.82794189 161.90602112 C243.83239858 163.34552994 243.83239858 163.34552994 243.8369453 164.81411976 C243.84560969 168.02656071 243.84713865 171.23896431 243.84863281 174.45141602 C243.85326264 176.75630269 243.85828753 179.06118859 243.86367798 181.36607361 C243.87678948 187.62672181 243.8832447 193.88735929 243.88768864 200.14801908 C243.89062184 204.06218627 243.89472715 207.97635055 243.89919281 211.89051628 C243.91129965 222.7414988 243.92168195 233.5924781 243.9250679 244.44346714 C243.92528747 245.13734236 243.92550703 245.83121758 243.92573325 246.54611933 C243.92595153 247.24159748 243.92616981 247.93707564 243.9263947 248.65362889 C243.92683816 250.0627871 243.92728472 251.47194531 243.92773438 252.88110352 C243.9279558 253.58008556 243.92817723 254.2790676 243.92840537 254.99923091 C243.93234932 266.31298477 243.94979222 277.62667405 243.9730939 288.94040299 C243.99685989 300.57413705 244.00901466 312.20783559 244.01043582 323.84159416 C244.01148213 330.36615502 244.01735285 336.8906248 244.03525543 343.41516304 C244.05178058 349.55719686 244.05386998 355.69907158 244.04511642 361.84111977 C244.04434839 364.08841123 244.04865777 366.3357114 244.05857468 368.58298111 C244.14243243 388.77965721 242.38368986 404.13461217 228.421875 419.828125 C220.35361365 427.15871674 210.98329355 431.90956089 201.25 436.625 C198.7493471 437.84629486 196.25111735 439.07246569 193.75390625 440.30078125 C193.11451111 440.61477371 192.47511597 440.92876617 191.81634521 441.25227356 C185.81292297 444.2168963 179.89434006 447.3351577 173.97691345 450.46707153 C166.10208538 454.63274611 158.17911572 458.70113966 150.24664307 462.75570679 C145.99645358 464.92833255 141.7482457 467.10482653 137.5 469.28125 C136.65591583 469.71362473 135.81183167 470.14599945 134.94216919 470.59147644 C127.55629451 474.37638512 120.18180875 478.18295664 112.8125 482 C102.69357813 487.2410426 92.56871538 492.47026908 82.4375 497.6875 C81.405112 498.21916275 81.405112 498.21916275 80.35186768 498.76156616 C76.86030335 500.55961205 73.36865001 502.35748499 69.87695312 504.15527344 C64.35071514 507.00069126 58.82512373 509.84736387 53.29956055 512.6940918 C50.56675357 514.10200705 47.83383822 515.50971161 45.10083008 516.91723633 C38.75454354 520.18579273 32.40890117 523.45557984 26.06564331 526.73001099 C23.12524263 528.24776329 20.18446032 529.76477535 17.24365234 531.28173828 C15.86504545 531.99312358 14.48661787 532.70485653 13.10839844 533.41699219 C5.7774837 537.2048141 -1.56583731 540.96787316 -8.93359375 544.68359375 C-9.59106094 545.01778824 -10.24852814 545.35198273 -10.92591858 545.69630432 C-25.01623587 552.7700397 -38.71308167 553.09699105 -53.66040039 548.59936523 C-59.62266034 546.49848468 -65.07537372 543.62914952 -70.625 540.625 C-71.87454438 539.96190482 -73.12489417 539.3003255 -74.37597656 538.64013672 C-77.01126133 537.24854914 -79.64346318 535.85136273 -82.27392578 534.45068359 C-88.31871779 531.24055943 -94.41048452 528.12161871 -100.49960327 524.99667358 C-103.97541098 523.21205507 -107.44844612 521.42205514 -110.921875 519.6328125 C-112.32225181 518.91175703 -113.72264244 518.19072838 -115.12304688 517.46972656 C-122.70600016 513.5653217 -130.28783618 509.65874753 -137.86987305 505.75256348 C-139.92886665 504.69179948 -141.98786781 503.63105014 -144.046875 502.5703125 C-144.72669434 502.22009033 -145.40651367 501.86986816 -146.10693359 501.5090332 C-150.27194423 499.3634366 -154.4372195 497.21835465 -158.60269165 495.07365417 C-173.48255102 487.4123437 -188.35693852 479.74076621 -203.21972656 472.04638672 C-211.99590147 467.50459462 -220.7817346 462.98174965 -229.57070923 458.46478271 C-234.00349187 456.18632797 -238.43547628 453.90632066 -242.86753845 451.62646484 C-246.38798826 449.81574588 -249.90893686 448.00601273 -253.43115234 446.19873047 C-261.74117901 441.93400111 -270.03515564 437.64042635 -278.3125 433.3125 C-279.62178467 432.63453369 -279.62178467 432.63453369 -280.95751953 431.94287109 C-296.76716753 423.71668652 -306.51011475 413.97913858 -312.55078125 396.953125 C-314.30834634 390.86023269 -314.45904989 385.00627973 -314.45294189 378.71897888 C-314.45591302 377.75930633 -314.45888414 376.79963378 -314.4619453 375.81088024 C-314.47060969 372.59843929 -314.47213865 369.38603569 -314.47363281 366.17358398 C-314.47826264 363.86869731 -314.48328753 361.56381141 -314.48867798 359.25892639 C-314.50178948 352.99827819 -314.5082447 346.73764071 -314.51268864 340.47698092 C-314.51562184 336.56281373 -314.51972715 332.64864945 -314.52419281 328.73448372 C-314.53629965 317.8835012 -314.54668195 307.0325219 -314.5500679 296.18153286 C-314.55028747 295.48765764 -314.55050703 294.79378242 -314.55073325 294.07888067 C-314.55095153 293.38340252 -314.55116981 292.68792436 -314.5513947 291.97137111 C-314.55183816 290.5622129 -314.55228472 289.15305469 -314.55273438 287.74389648 C-314.5529558 287.04491444 -314.55317723 286.3459324 -314.55340537 285.62576909 C-314.55734932 274.31201523 -314.57479222 262.99832595 -314.5980939 251.68459701 C-314.62185989 240.05086295 -314.63401466 228.41716441 -314.63543582 216.78340584 C-314.63648213 210.25884498 -314.64235285 203.7343752 -314.66025543 197.20983696 C-314.67678058 191.06780314 -314.67886998 184.92592842 -314.67011642 178.78388023 C-314.66934839 176.53658877 -314.67365777 174.2892886 -314.68357468 172.04201889 C-314.76743243 151.84534279 -313.00868986 136.49038783 -299.046875 120.796875 C-290.97861365 113.46628326 -281.60829355 108.71543911 -271.875 104 C-269.3743471 102.77870514 -266.87611735 101.55253431 -264.37890625 100.32421875 C-263.73951111 100.01022629 -263.10011597 99.69623383 -262.44134521 99.37272644 C-256.43792297 96.4081037 -250.51934006 93.2898423 -244.60191345 90.15792847 C-236.72708538 85.99225389 -228.80411572 81.92386034 -220.87164307 77.86929321 C-216.62145358 75.69666745 -212.3732457 73.52017347 -208.125 71.34375 C-207.28091583 70.91137527 -206.43683167 70.47900055 -205.56716919 70.03352356 C-198.18129451 66.24861488 -190.80680875 62.44204336 -183.4375 58.625 C-173.31857813 53.3839574 -163.19371538 48.15473092 -153.0625 42.9375 C-152.37424133 42.58305817 -151.68598267 42.22861633 -150.97686768 41.86343384 C-147.48530335 40.06538795 -143.99365001 38.26751501 -140.50195312 36.46972656 C-134.97571514 33.62430874 -129.45012373 30.77763613 -123.92456055 27.9309082 C-121.19175357 26.52299295 -118.45883822 25.11528839 -115.72583008 23.70776367 C-109.37954354 20.43920727 -103.03390117 17.16942016 -96.69064331 13.89498901 C-93.75024263 12.37723671 -90.80946032 10.86022465 -87.86865234 9.34326172 C-86.49004545 8.63187642 -85.11161787 7.92014347 -83.73339844 7.20800781 C-76.4024837 3.4201859 -69.05916269 -0.34287316 -61.69140625 -4.05859375 C-61.03393906 -4.39278824 -60.37647186 -4.72698273 -59.69908142 -5.07130432 C-39.00061026 -15.4625187 -19.59124693 -10.60522495 0 0 Z" transform="translate(335.3125,29.6875)"/><path fill="#F8F8F9" d="M0 0 C170.94 0 341.88 0 518 0 C518 42.25 518 42.25 511 51 C510.39647705 51.75470581 510.39647705 51.75470581 509.78076172 52.5246582 C504.03794668 58.94851829 496.46181192 62.24741916 488.875 66 C487.39037666 66.74731772 485.90650076 67.49612197 484.42333984 68.24633789 C481.4002445 69.7741697 478.37417747 71.29584859 475.34570312 72.81298828 C469.0741679 75.96100634 462.85108625 79.20070477 456.625 82.4375 C454.24774663 83.66865387 451.87024114 84.89930085 449.4921875 86.12890625 C448.59217514 86.59435852 448.59217514 86.59435852 447.67398071 87.06921387 C440.03870912 91.01623432 432.39427133 94.94544676 424.75 98.875 C424.01644287 99.25209106 423.28288574 99.62918213 422.52709961 100.0177002 C419.55955985 101.5431609 416.59201135 103.06860462 413.62445068 104.59402466 C405.78951876 108.62172351 397.95667529 112.65347278 390.125 116.6875 C389.09925873 117.21583939 389.09925873 117.21583939 388.05279541 117.75485229 C377.39282735 123.24623159 366.74116818 128.75351826 356.09228516 134.26635742 C345.09134592 139.95951895 334.0753202 145.62324555 323.05664062 151.28198242 C315.95942745 154.92790043 308.86731539 158.58301318 301.7890625 162.265625 C300.48112614 162.94532472 299.17318356 163.62501246 297.86523438 164.3046875 C295.46636828 165.55144428 293.0695671 166.80190719 290.67382812 168.0546875 C267.4788945 180.11329988 267.4788945 180.11329988 259.4375 180.3125 C258.46683594 180.34988281 257.49617188 180.38726563 256.49609375 180.42578125 C246.93774157 179.26169143 238.03511738 173.65580281 229.5625 169.375 C228.43134766 168.80910156 227.30019531 168.24320313 226.13476562 167.66015625 C218.48806928 163.81763809 210.90741038 159.85839959 203.34043884 155.86146545 C195.44598318 151.69619559 187.50746288 147.61945654 179.55969238 143.55706787 C175.30672393 141.38303228 171.05571884 139.20516405 166.8046875 137.02734375 C165.96019043 136.59476257 165.11569336 136.1621814 164.24560547 135.7164917 C156.9041904 131.95435642 149.57457214 128.1698013 142.25 124.375 C131.67659067 118.89721862 121.09151693 113.44266361 110.5 108 C98.66387807 101.91755737 86.83571506 95.82022956 75.02075195 89.69677734 C68.34942325 86.24146341 61.66947374 82.80378956 54.98046875 79.3828125 C52.64398006 78.18640209 50.30758349 76.98981194 47.97119141 75.79321289 C46.48269859 75.03178055 44.99363067 74.27147109 43.50390625 73.51245117 C35.69186296 69.53207177 27.93069906 65.47580376 20.26953125 61.2109375 C19.61264816 60.84851959 18.95576508 60.48610168 18.27897644 60.11270142 C12.58613003 56.90886453 8.14705474 53.8642889 4.8125 48.1875 C4.32394531 47.37667969 3.83539063 46.56585938 3.33203125 45.73046875 C-3.74877092 31.21586254 0 16.76102469 0 0 Z" transform="translate(41,381)"/><path fill="#FEFDFD" d="M0 0 C2.0147714 1.03229648 4.02974424 2.06419989 6.04492188 3.09570312 C17.01504634 8.71719699 27.95537319 14.39420705 38.87928772 20.10490417 C47.2456104 24.47573267 55.63950917 28.79121247 64.04382324 33.08843994 C77.08683854 39.75827705 90.11383668 46.45730698 103.11279297 53.21264648 C112.24992189 57.95838902 121.40464961 62.66941842 130.5625 67.375 C143.87371128 74.21558393 157.17986339 81.06561698 170.46484375 87.95703125 C174.90768142 90.26141295 179.35849211 92.5491499 183.81640625 94.82421875 C185.877623 95.88277583 187.93882188 96.9413677 190 98 C190.9187793 98.4645459 191.83755859 98.9290918 192.78417969 99.40771484 C203.63010662 105.00109692 213.011986 111.57024967 217.1875 123.4375 C219.80319882 136.51599412 218.1875 150.10000065 218.1875 163.4375 C47.2475 163.4375 -123.6925 163.4375 -299.8125 163.4375 C-299.8125 121.13370253 -299.8125 121.13370253 -291.08203125 109.5078125 C-287.7116779 106.43330773 -283.84297205 104.53304107 -279.8125 102.4375 C-279.06814697 102.04175781 -278.32379395 101.64601563 -277.55688477 101.23828125 C-275.1064171 99.93877097 -272.64806219 98.65529252 -270.1875 97.375 C-269.22005859 96.87097656 -268.25261719 96.36695313 -267.25585938 95.84765625 C-251.67304406 87.74725439 -236.02880081 79.76531991 -220.39660645 71.76080322 C-212.82600787 67.88395151 -205.25643651 64.00509553 -197.6875 60.125 C-196.87045593 59.70616547 -196.05341187 59.28733093 -195.21160889 58.85580444 C-183.61201897 52.9086656 -172.02467895 46.93850882 -160.44970703 40.94360352 C-151.493274 36.30493586 -142.52967543 31.68036063 -133.5625 27.0625 C-132.87557068 26.70872284 -132.18864136 26.35494568 -131.480896 25.990448 C-125.8903175 23.11128451 -120.29941625 20.23274801 -114.70849609 17.35424805 C-111.21205581 15.55407244 -107.71568942 13.75375364 -104.21948242 11.953125 C-101.46740259 10.53575452 -98.71491768 9.11917501 -95.9621582 7.703125 C-89.15645257 4.20072111 -82.35887744 0.68364232 -75.57421875 -2.859375 C-73.59700993 -3.88979028 -71.61963512 -4.91988634 -69.64221191 -5.94989014 C-67.80885884 -6.90677957 -65.97814003 -7.86857411 -64.14746094 -8.83056641 C-38.62147919 -22.12611905 -23.7904656 -12.24578363 0 0 Z" transform="translate(340.8125,55.5625)"/><path fill="#DBD7DE" d="M0 0 C1.3447337 1.32183464 2.67611809 2.65728177 4 4 C5.59284066 5.16270292 7.21817605 6.28171726 8.8671875 7.36328125 C9.82359131 7.99484131 10.77999512 8.62640137 11.76538086 9.27709961 C12.79155518 9.94878174 13.81772949 10.62046387 14.875 11.3125 C17.06183828 12.75684341 19.24802276 14.20217715 21.43359375 15.6484375 C21.98711014 16.01414352 22.54062653 16.37984955 23.11091614 16.75663757 C28.42018168 20.26789449 33.68405426 23.84346911 38.9375 27.4375 C39.81865479 28.03981445 40.69980957 28.64212891 41.60766602 29.26269531 C43.43292602 30.51052854 45.25803731 31.75857934 47.08300781 33.00683594 C51.94093903 36.32623253 56.8051306 39.63641697 61.67019653 42.94534302 C63.26013966 44.02688251 64.8496812 45.10901229 66.43920898 46.19116211 C67.42477783 46.86155518 68.41034668 47.53194824 69.42578125 48.22265625 C70.28598877 48.80797119 71.14619629 49.39328613 72.0324707 49.99633789 C73.01175537 50.65754639 73.99104004 51.31875488 75 52 C75.55042227 52.48888486 76.10084454 52.97776972 76.66794628 53.48146927 C84.01475592 59.44195486 91.84012949 58.83920146 100.79933167 58.75949097 C102.51477845 58.76624364 104.23021655 58.77562553 105.94563621 58.78740036 C110.64579605 58.81209123 115.34522793 58.79960154 120.04538834 58.78093672 C125.11894874 58.76733883 130.19238057 58.78836848 135.26591492 58.80516052 C144.05156777 58.82951436 152.83700771 58.83200227 161.62268257 58.81957626 C174.32519664 58.80164218 187.02750252 58.816782 199.73000025 58.83995558 C220.3396291 58.87665795 240.94918085 58.88666759 261.55883789 58.87988281 C281.57741924 58.8733498 301.59593175 58.8793931 321.61450195 58.90234375 C322.84875361 58.9037544 324.08300527 58.90516506 325.35465849 58.90661846 C331.54662854 58.91377297 337.73859826 58.92117466 343.93056786 58.92869925 C395.28705573 58.99078884 446.64347921 59.00790822 498 59 C498 47.78 498 36.56 498 25 C498.33 25 498.66 25 499 25 C499 36.55 499 48.1 499 60 C328.06 60 157.12 60 -19 60 C-19 15.45140389 -19 15.45140389 -8 4 C-3.25405405 0 -3.25405405 0 0 0 Z" transform="translate(60,159)"/><path fill="#84182A" d="M0 0 C0.83724609 -0.01611328 1.67449219 -0.03222656 2.53710938 -0.04882812 C7.35374122 -0.05264177 10.48320485 0.2477191 14.4375 3.3125 C14.1075 4.6325 13.7775 5.9525 13.4375 7.3125 C9.94963855 8.31354638 6.81975942 8.31385497 3.19311523 8.19555664 C-8.42593083 7.85119152 -16.38839666 9.77476968 -25.5234375 17.328125 C-32.60051118 24.21539211 -36.87613621 33.02169885 -37.03100586 42.90844727 C-37.02077393 43.66053467 -37.01054199 44.41262207 -37 45.1875 C-36.99170166 45.97761475 -36.98340332 46.76772949 -36.97485352 47.58178711 C-36.6770942 57.89104116 -32.91786901 66.01121459 -25.5625 73.3125 C-14.36559323 81.84037667 -4.27740981 83.55699518 9.4375 82.3125 C18.60189131 80.37276191 26.48584567 74.48450618 31.8125 66.875 C36.85929815 59.09820869 37.83400763 52.48721622 37.5 43.4375 C37.4402241 41.56536973 37.38900345 39.69294041 37.34765625 37.8203125 C37.30330444 36.59272217 37.30330444 36.59272217 37.25805664 35.34033203 C37.4375 33.3125 37.4375 33.3125 39.4375 31.3125 C41.4375 31.4375 41.4375 31.4375 43.4375 32.3125 C47.32444088 37.81210784 46.00262647 46.87208177 45.4375 53.3125 C43.22072239 65.7370739 36.77241197 76.0260153 26.4375 83.3125 C14.3757273 90.44335933 2.15021594 91.84288799 -11.5703125 89.8828125 C-23.39948397 86.80190289 -33.21150165 78.68449721 -39.3515625 68.28125 C-45.43248649 56.63815383 -46.85839421 42.58791424 -43 29.875 C-38.20038457 17.58124819 -29.83796841 9.01530696 -18.0546875 3.35546875 C-11.80848494 0.74146235 -6.71445114 -0.02596462 0 0 Z" transform="translate(299.5625,416.6875)"/><path fill="#A2222C" d="M0 0 C19.3466679 -0.7914546 19.3466679 -0.7914546 25 4 C28.76749962 7.7388857 31.14044326 10.88171961 31.25 16.25 C31.19913245 21.51479158 29.76496495 25.23503505 26 29 C26.49371094 29.54269531 26.98742187 30.08539063 27.49609375 30.64453125 C28.13675781 31.35996094 28.77742188 32.07539063 29.4375 32.8125 C30.07558594 33.52019531 30.71367187 34.22789062 31.37109375 34.95703125 C34.40878597 38.76689464 34.40437671 42.67519538 34.3359375 47.36328125 C33.78618104 51.67823022 32.14589121 54.99829547 29 58 C22.88561005 62.26200088 17.27141963 62.51076815 10 62.25 C9.03449219 62.23195312 8.06898438 62.21390625 7.07421875 62.1953125 C4.71570963 62.14860935 2.3577183 62.07688212 0 62 C0 59.03 0 56.06 0 53 C1.75376953 52.94392578 1.75376953 52.94392578 3.54296875 52.88671875 C5.09117675 52.8210372 6.63935242 52.75459061 8.1875 52.6875 C8.95642578 52.66494141 9.72535156 52.64238281 10.51757812 52.61914062 C15.02489917 52.40634864 18.48547617 52.12785716 22 49 C22.78800002 46.61458308 22.78800002 46.61458308 22.625 44 C22.64433594 42.700625 22.64433594 42.700625 22.6640625 41.375 C22.18757536 38.84602443 22.18757536 38.84602443 20.01171875 37.23046875 C16.03218603 35.60458962 12.4495896 35.43754035 8.1875 35.3125 C7.00510742 35.26125977 7.00510742 35.26125977 5.79882812 35.20898438 C3.86636881 35.12700125 1.93320965 35.06181155 0 35 C0 32.03 0 29.06 0 26 C1.42892578 25.92652344 1.42892578 25.92652344 2.88671875 25.8515625 C4.14097656 25.77679688 5.39523437 25.70203125 6.6875 25.625 C7.92886719 25.55539063 9.17023438 25.48578125 10.44921875 25.4140625 C13.71720341 25.03297738 16.08987934 24.50095277 19 23 C20.54163175 19.9167365 20.29747535 17.39121901 20 14 C17.50876297 11.21757943 15.85354891 10.98073786 12.109375 10.48828125 C10.65688364 10.41565668 9.20361121 10.35744381 7.75 10.3125 C6.63238281 10.26125977 6.63238281 10.26125977 5.4921875 10.20898438 C3.66197508 10.12685946 1.83101331 10.06174347 0 10 C0 6.7 0 3.4 0 0 Z" transform="translate(379,127)"/><path fill="#A2232E" d="M0 0 C21.74698444 -0.79643076 21.74698444 -0.79643076 28 4 C32.36861923 8.07447279 35.26450218 12.60018065 35.5 18.625 C35.37193261 24.79967769 32.89160279 29.30170962 29 34 C22.66523754 38.2662686 16.05953614 38.13814047 8.6875 38.0625 C7.43356445 38.05573242 7.43356445 38.05573242 6.15429688 38.04882812 C4.10283351 38.03710548 2.05140727 38.01917203 0 38 C0 35.03 0 32.06 0 29 C1.16917969 28.96261719 2.33835938 28.92523438 3.54296875 28.88671875 C5.09117675 28.8210372 6.63935242 28.75459061 8.1875 28.6875 C9.34088867 28.65366211 9.34088867 28.65366211 10.51757812 28.61914062 C15.10924853 28.40236649 18.2597126 27.94139106 22 25 C23.56471233 21.87057535 23.69701958 18.38917777 23 15 C21.66733601 12.59516538 21.66733601 12.59516538 19 11 C15.75580329 10.37315648 12.54763081 10.30358041 9.25 10.25 C8.36183594 10.22035156 7.47367188 10.19070312 6.55859375 10.16015625 C4.37288103 10.08964939 2.18643589 10.04253766 0 10 C0 6.7 0 3.4 0 0 Z" transform="translate(200,127)"/><path fill="#A2212C" d="M0 0 C0 2.97 0 5.94 0 9 C-1.051875 9.226875 -2.10375 9.45375 -3.1875 9.6875 C-7.23853678 10.87416734 -9.36385248 12.63158928 -12 16 C-15.79904691 23.33609059 -16.49798583 31.69943475 -14.23828125 39.6953125 C-12.53251628 43.78105783 -10.66273212 47.38376277 -7 50 C-3.36456099 51.27765265 -3.36456099 51.27765265 0 52 C0 54.97 0 57.94 0 61 C-5.98104356 61.4984203 -10.04265424 60.44476979 -15 57 C-22.13905293 50.83313517 -25.53049377 43.38865108 -26.34375 34.0546875 C-26.71143515 24.05670575 -25.82214983 16.15863857 -19.4375 8.1875 C-14.05885197 2.51114082 -7.84140101 -0.32034143 0 0 Z" transform="translate(327,128)"/><path fill="#F9F3F3" d="M0 0 C2.97 0 5.94 0 9 0 C9.79311367 1.72850345 10.5844259 3.45783354 11.375 5.1875 C11.81585938 6.15042969 12.25671875 7.11335938 12.7109375 8.10546875 C13.87321851 10.71531792 14.95924781 13.33975959 16 16 C17.9944459 13.00833114 19.21971578 10.20189821 20.5625 6.875 C22.89336016 1.10663984 22.89336016 1.10663984 24 0 C26.64 0 29.28 0 32 0 C32 9.24 32 18.48 32 28 C29.69 28 27.38 28 25 28 C24.67 24.37 24.34 20.74 24 17 C22.68 20.63 21.36 24.26 20 28 C17.69 28 15.38 28 13 28 C11.35 23.38 9.7 18.76 8 14 C7.67 18.62 7.34 23.24 7 28 C4.69 28 2.38 28 0 28 C0 18.76 0 9.52 0 0 Z" transform="translate(84,283)"/><path fill="#F8F4F4" d="M0 0 C2.97 0 5.94 0 9 0 C11.31 5.28 13.62 10.56 16 16 C18.59395171 13.40604829 19.29880793 10.87398799 20.5625 7.4375 C22.90277778 1.09722222 22.90277778 1.09722222 24 0 C26.64 0 29.28 0 32 0 C32 9.24 32 18.48 32 28 C29.69 28 27.38 28 25 28 C24.67 24.37 24.34 20.74 24 17 C22.68 20.63 21.36 24.26 20 28 C17.69 28 15.38 28 13 28 C11.35 23.38 9.7 18.76 8 14 C7.67 18.62 7.34 23.24 7 28 C4.69 28 2.38 28 0 28 C0 18.76 0 9.52 0 0 Z" transform="translate(336,283)"/><path fill="#F7F4F4" d="M0 0 C0.99 0.66 1.98 1.32 3 2 C3.33 1.67 3.66 1.34 4 1 C6.33297433 0.95907063 8.66705225 0.95758277 11 1 C11.08729047 5.06236402 11.14048992 9.12448589 11.1875 13.1875 C11.21263672 14.33798828 11.23777344 15.48847656 11.26367188 16.67382812 C11.27333984 17.78564453 11.28300781 18.89746094 11.29296875 20.04296875 C11.3086792 21.06414795 11.32438965 22.08532715 11.34057617 23.13745117 C10.84488184 27.30377089 9.1297555 29.92661484 6.12109375 32.78515625 C2.28280243 34.98351463 -1.72005653 34.62329274 -6 34 C-9.49642065 32.07340087 -10.68231206 31.07525149 -11.8125 27.25 C-11.874375 26.5075 -11.93625 25.765 -12 25 C-9.69 25 -7.38 25 -5 25 C-4.67 25.99 -4.34 26.98 -4 28 C-0.535 27.505 -0.535 27.505 3 27 C3 25.02 3 23.04 3 21 C2.34 21.66 1.68 22.32 1 23 C-2.05486092 23.56025442 -4.94425647 23.54916387 -8 23 C-11.57965315 19.59932951 -13.15960509 16.62123867 -13.375 11.75 C-13.35207487 8.19660432 -12.89656284 6.25259968 -10.625 3.5 C-6.91251188 -0.03570297 -5.07233432 -0.31055108 0 0 Z" transform="translate(464,288)"/><path fill="#A11E29" d="M0 0 C2.64 0 5.28 0 8 0 C8 20.13 8 40.26 8 61 C5.36 61 2.72 61 0 61 C-2.2472592 57.6291112 -2.25239842 56.49507895 -2.25878906 52.55053711 C-2.26509338 51.43605698 -2.27139771 50.32157684 -2.27789307 49.17332458 C-2.2738446 47.97015091 -2.26979614 46.76697723 -2.265625 45.52734375 C-2.26753845 44.29335342 -2.2694519 43.0593631 -2.27142334 41.78797913 C-2.27313424 38.50895162 -2.26507662 35.23011322 -2.25390625 31.95111084 C-2.25000091 29.93796774 -2.25389583 27.92499877 -2.26074219 25.91186523 C-2.2730579 22.05444172 -2.27161106 18.19727783 -2.265625 14.33984375 C-2.26967346 13.13464584 -2.27372192 11.92944794 -2.27789307 10.68772888 C-2.27158875 9.57640091 -2.26528442 8.46507294 -2.25878906 7.32006836 C-2.25719788 6.33872421 -2.25560669 5.35738007 -2.25396729 4.34629822 C-2 2 -2 2 0 0 Z" transform="translate(368,128)"/><path fill="#A11E29" d="M0 0 C2.64 0 5.28 0 8 0 C8 20.13 8 40.26 8 61 C5.36 61 2.72 61 0 61 C-2.2472592 57.6291112 -2.25239842 56.49507895 -2.25878906 52.55053711 C-2.26509338 51.43605698 -2.27139771 50.32157684 -2.27789307 49.17332458 C-2.2738446 47.97015091 -2.26979614 46.76697723 -2.265625 45.52734375 C-2.26753845 44.29335342 -2.2694519 43.0593631 -2.27142334 41.78797913 C-2.27313424 38.50895162 -2.26507662 35.23011322 -2.25390625 31.95111084 C-2.25000091 29.93796774 -2.25389583 27.92499877 -2.26074219 25.91186523 C-2.2730579 22.05444172 -2.27161106 18.19727783 -2.265625 14.33984375 C-2.26967346 13.13464584 -2.27372192 11.92944794 -2.27789307 10.68772888 C-2.27158875 9.57640091 -2.26528442 8.46507294 -2.25878906 7.32006836 C-2.25719788 6.33872421 -2.25560669 5.35738007 -2.25396729 4.34629822 C-2 2 -2 2 0 0 Z" transform="translate(189,128)"/><path fill="#A11E29" d="M0 0 C2.64 0 5.28 0 8 0 C8 20.13 8 40.26 8 61 C5.36 61 2.72 61 0 61 C-2.23132644 57.65301034 -2.25232112 56.56598538 -2.25878906 52.65820312 C-2.26509338 51.56697144 -2.27139771 50.47573975 -2.27789307 49.35144043 C-2.2738446 48.17327759 -2.26979614 46.99511475 -2.265625 45.78125 C-2.26753845 44.57182739 -2.2694519 43.36240479 -2.27142334 42.11633301 C-2.27278524 39.55753369 -2.2690885 36.99872747 -2.26074219 34.43994141 C-2.25004306 30.51579314 -2.26063767 26.59210272 -2.2734375 22.66796875 C-2.27211591 20.18489482 -2.26955352 17.70182117 -2.265625 15.21875 C-2.26967346 14.04058716 -2.27372192 12.86242432 -2.27789307 11.64855957 C-2.27158875 10.55732788 -2.26528442 9.46609619 -2.25878906 8.34179688 C-2.25719788 7.38043823 -2.25560669 6.41907959 -2.25396729 5.42858887 C-2 3 -2 3 0 0 Z" transform="translate(247,128)"/><path fill="#8E1A29" d="M0 0 C0.33504667 3.14484832 0.30360914 4.57602532 -1.56756592 7.18902588 C-2.30162659 7.9210321 -3.03568726 8.65303833 -3.79199219 9.40722656 C-4.619953 10.2444928 -5.44791382 11.08175903 -6.30096436 11.94439697 C-7.20711487 12.83415222 -8.11326538 13.72390747 -9.046875 14.640625 C-9.96962219 15.56341248 -10.89236938 16.48619995 -11.84307861 17.43695068 C-13.79588584 19.3881054 -15.756922 21.33045645 -17.72460938 23.26660156 C-20.24463107 25.74694589 -22.7466215 28.24456888 -25.24311447 30.74856949 C-27.62805779 33.137323 -30.02519863 35.51364178 -32.421875 37.890625 C-33.31992859 38.78847717 -34.21798218 39.68632935 -35.14324951 40.61138916 C-35.98381897 41.43604675 -36.82438843 42.26070435 -37.69042969 43.11035156 C-38.42767273 43.83917542 -39.16491577 44.56799927 -39.92449951 45.31890869 C-42.04052079 47.03282059 -43.30794401 47.72699098 -46 48 C-47.82421875 46.8828125 -47.82421875 46.8828125 -49.6875 45.125 C-50.37199219 44.48046875 -51.05648438 43.8359375 -51.76171875 43.171875 C-52.50035156 42.45515625 -53.23898437 41.7384375 -54 41 C-54.83144531 40.24203125 -55.66289062 39.4840625 -56.51953125 38.703125 C-57.74736328 37.55070312 -57.74736328 37.55070312 -59 36.375 C-59.763125 35.66085937 -60.52625 34.94671875 -61.3125 34.2109375 C-63.32043115 31.58017586 -63.36284925 30.23162612 -63 27 C-61.24609375 26.3046875 -61.24609375 26.3046875 -59 26 C-57.03515625 27.2578125 -57.03515625 27.2578125 -55.0625 29.125 C-54.37285156 29.76824219 -53.68320312 30.41148437 -52.97265625 31.07421875 C-52.32167969 31.70972656 -51.67070312 32.34523438 -51 33 C-50.46246094 33.52207031 -49.92492187 34.04414063 -49.37109375 34.58203125 C-48.23309059 35.70706571 -47.11399729 36.85119029 -46 38 C-42.82561707 36.59832763 -40.70601641 34.94624673 -38.27294922 32.48413086 C-37.55895966 31.76676254 -36.84497009 31.04939423 -36.10934448 30.31028748 C-35.34880768 29.53629105 -34.58827087 28.76229462 -33.8046875 27.96484375 C-33.01603302 27.1709877 -32.22737854 26.37713165 -31.41482544 25.55921936 C-28.89676055 23.0233426 -26.38548213 20.48088208 -23.875 17.9375 C-21.35651636 15.39142771 -18.83660341 12.84681279 -16.31375122 10.30506897 C-14.74399988 8.72303024 -13.17692895 7.13832669 -11.61276245 5.55076599 C-10.90507721 4.83654984 -10.19739197 4.12233368 -9.46826172 3.38647461 C-8.84523163 2.7551915 -8.22220154 2.12390839 -7.58029175 1.47349548 C-4.79475108 -1.12379809 -3.5278983 -1.05836949 0 0 Z" transform="translate(345,425)"/><path fill="#F8F1F2" d="M0 0 C2.701875 -0.0825 5.40375 -0.165 8.1875 -0.25 C9.02949951 -0.28641602 9.87149902 -0.32283203 10.73901367 -0.36035156 C14.57865552 -0.41694441 16.61064098 -0.22393187 20.015625 1.734375 C22.80590525 4.92012805 22.64917988 6.80275199 22.44140625 10.87109375 C21.82114837 13.86260302 20.44098846 15.24553954 18 17 C18.28875 17.70125 18.5775 18.4025 18.875 19.125 C20.02133588 22.05452503 21.02625654 25.00921653 22 28 C19.36 28 16.72 28 14 28 C13.16151196 26.54462432 12.32936066 25.08559627 11.5 23.625 C11.0359375 22.81289063 10.571875 22.00078125 10.09375 21.1640625 C9 19 9 19 9 17 C8.34 17 7.68 17 7 17 C7 20.63 7 24.26 7 28 C4.69 28 2.38 28 0 28 C0 18.76 0 9.52 0 0 Z" transform="translate(244,283)"/><path fill="#F8F2F2" d="M0 0 C2.701875 -0.0825 5.40375 -0.165 8.1875 -0.25 C9.02949951 -0.28641602 9.87149902 -0.32283203 10.73901367 -0.36035156 C14.58014269 -0.41696633 16.60808934 -0.22620006 20.01171875 1.73828125 C22.79341323 4.90252703 22.70865299 6.74770968 22.5078125 10.8046875 C21.71428754 14.23515695 19.70931774 15.90027875 17 18 C17.3609375 18.55429687 17.721875 19.10859375 18.09375 19.6796875 C18.5578125 20.40414063 19.021875 21.12859375 19.5 21.875 C20.19609375 22.95394531 20.19609375 22.95394531 20.90625 24.0546875 C22 26 22 26 22 28 C19.36 28 16.72 28 14 28 C13.16151196 26.54462432 12.32936066 25.08559627 11.5 23.625 C11.0359375 22.81289063 10.571875 22.00078125 10.09375 21.1640625 C9 19 9 19 9 17 C8.34 17 7.68 17 7 17 C7 20.63 7 24.26 7 28 C4.69 28 2.38 28 0 28 C0 18.76 0 9.52 0 0 Z" transform="translate(199,283)"/><path fill="#F8F5F5" d="M0 0 C0.99 0.66 1.98 1.32 3 2 C3.33 1.67 3.66 1.34 4 1 C6.31 1 8.62 1 11 1 C11 8.26 11 15.52 11 23 C8.69 23 6.38 23 4 23 C4 22.34 4 21.68 4 21 C3.01 21.66 2.02 22.32 1 23 C-2.06325633 23.53592882 -4.93879682 23.55909859 -8 23 C-11.57965315 19.59932951 -13.15960509 16.62123867 -13.375 11.75 C-13.35207487 8.19660432 -12.89656284 6.25259968 -10.625 3.5 C-6.91251188 -0.03570297 -5.07233432 -0.31055108 0 0 Z" transform="translate(437,288)"/><path fill="#F8F5F5" d="M0 0 C0.99 0.66 1.98 1.32 3 2 C3.33 1.67 3.66 1.34 4 1 C6.31 1 8.62 1 11 1 C11 8.26 11 15.52 11 23 C8.69 23 6.38 23 4 23 C4 22.34 4 21.68 4 21 C3.01 21.66 2.02 22.32 1 23 C-2.06325633 23.53592882 -4.93879682 23.55909859 -8 23 C-11.57965315 19.59932951 -13.15960509 16.62123867 -13.375 11.75 C-13.35207487 8.19660432 -12.89656284 6.25259968 -10.625 3.5 C-6.91251188 -0.03570297 -5.07233432 -0.31055108 0 0 Z" transform="translate(384,288)"/><path fill="#F8F2F2" d="M0 0 C2.31 0 4.62 0 7 0 C7 3.63 7 7.26 7 11 C10.63 11 14.26 11 18 11 C18 7.37 18 3.74 18 0 C20.31 0 22.62 0 25 0 C25 9.24 25 18.48 25 28 C22.69 28 20.38 28 18 28 C18 24.37 18 20.74 18 17 C14.7 17 11.4 17 8 17 C8 20.63 8 24.26 8 28 C5.36 28 2.72 28 0 28 C0 18.76 0 9.52 0 0 Z" transform="translate(141,283)"/><path fill="#FAF5F5" d="M0 0 C2.97 0 5.94 0 9 0 C19 23.23404255 19 23.23404255 19 28 C16.36 28 13.72 28 11 28 C10.505 25.525 10.505 25.525 10 23 C6.37 23 2.74 23 -1 23 C-1.33 24.65 -1.66 26.3 -2 28 C-4.31 28 -6.62 28 -9 28 C-7.67554915 21.37105659 -5.78331885 15.24709958 -3.375 8.9375 C-2.88773438 7.6390918 -2.88773438 7.6390918 -2.390625 6.31445312 C-1.59910589 4.20761548 -0.80031846 2.10351081 0 0 Z" transform="translate(178,283)"/><path fill="#F5EDEE" d="M0 0 C2.64 0 5.28 0 8 0 C8.33 4.62 8.66 9.24 9 14 C9.474375 13.01 9.94875 12.02 10.4375 11 C13 8 13 8 15.26953125 7.6015625 C17.53871994 7.62300365 19.74627444 7.73995474 22 8 C19.75421558 11.40739705 17.48862878 14.76478258 15 18 C16.17451469 20.77612564 17.66968014 22.8650269 19.625 25.125 C22 28 22 28 22 30 C16.89119171 30.70466321 16.89119171 30.70466321 14 30 C11.50873331 27.62339412 9.74263186 24.95719346 8 22 C7.67 24.64 7.34 27.28 7 30 C4.69 30 2.38 30 0 30 C0 20.1 0 10.2 0 0 Z" transform="translate(303,281)"/><path fill="#F2EDEE" d="M0 0 C3.11141288 1.6437653 5.28893717 3.03036886 7.375 5.875 C8 8 8 8 8 14 C3.05 14.33 -1.9 14.66 -7 15 C-7 15.66 -7 16.32 -7 17 C-5.02 17 -3.04 17 -1 17 C-1 16.34 -1 15.68 -1 15 C1.64 15 4.28 15 7 15 C6.69461464 17.85026332 5.95551924 19.05165508 4.0625 21.25 C-0.27575979 23.7290056 -4.11280727 23.95496869 -9 23 C-11.82424288 20.80977082 -13.41508603 19.16982793 -15 16 C-15.54399285 11.460781 -15.62289461 8.0455731 -13.25 4.0625 C-8.9429216 0.1143448 -5.91201713 -0.61158798 0 0 Z" transform="translate(493,288)"/><path fill="#F5EBEC" d="M0 0 C5.94 0 11.88 0 18 0 C18 1.98 18 3.96 18 6 C14.7 6 11.4 6 8 6 C8 7.65 8 9.3 8 11 C10.97 11 13.94 11 17 11 C17 12.98 17 14.96 17 17 C14.03 17 11.06 17 8 17 C8 18.65 8 20.3 8 22 C11.3 22 14.6 22 18 22 C18 23.98 18 25.96 18 28 C12.06 28 6.12 28 0 28 C0 18.76 0 9.52 0 0 Z" transform="translate(120,283)"/><path fill="#F4EFF0" d="M0 0 C2.31 0 4.62 0 7 0 C7.33 0.66 7.66 1.32 8 2 C8.99 1.34 9.98 0.68 11 0 C14.8973724 -0.50835292 16.50556726 -0.32962183 19.8125 1.875 C22.89485849 4.8692911 22.98707913 5.48213147 23.09765625 9.9140625 C23.09100226 11.48440463 23.07906939 13.05473119 23.0625 14.625 C23.05798828 15.42679687 23.05347656 16.22859375 23.04882812 17.0546875 C23.03703168 19.03649006 23.01909605 21.01825433 23 23 C20.69 23 18.38 23 16 23 C15.67 17.72 15.34 12.44 15 7 C12.69 7.66 10.38 8.32 8 9 C7.67 13.62 7.34 18.24 7 23 C4.69 23 2.38 23 0 23 C0 15.41 0 7.82 0 0 Z" transform="translate(399,288)"/><path fill="#A32731" d="M0 0 C4.07502794 -0.07420211 8.14979392 -0.1286257 12.2253418 -0.16479492 C13.61147919 -0.17987397 14.99756894 -0.2003405 16.38354492 -0.22631836 C18.37658146 -0.26273716 20.36996723 -0.27813018 22.36328125 -0.29296875 C23.56251221 -0.3086792 24.76174316 -0.32438965 25.99731445 -0.34057617 C29 0 29 0 30.91479492 1.08081055 C32 3 32 3 32 10 C21.44 10 10.88 10 0 10 C0 6.7 0 3.4 0 0 Z" transform="translate(258,127)"/><path fill="#F7F0F0" d="M0 0 C3 1.75 3 1.75 5 4 C5 5.32 5 6.64 5 8 C0.78121808 8.19622241 -2.17010894 7.80230168 -6 6 C-5.20132321 8.13581094 -5.20132321 8.13581094 -3.2578125 8.74609375 C-1.84141422 9.20525583 -0.42474915 9.66359575 0.9921875 10.12109375 C3.23666174 11.10359707 4.45566428 12.10878272 6 14 C6.56114721 17.1263916 6.25613705 18.54871092 4.6875 21.3125 C0.4604306 23.96670637 -4.14082571 23.79318874 -9 23 C-11.34375 21.72265625 -11.34375 21.72265625 -13 20 C-13 18.68 -13 17.36 -13 16 C-9.16774573 15.91087781 -5.73437848 16.12132271 -2 17 C-2.81437525 14.80935836 -2.81437525 14.80935836 -5.03125 14.21875 C-5.8459375 13.9815625 -6.660625 13.744375 -7.5 13.5 C-9.96875 12.78125 -9.96875 12.78125 -12 12 C-13.43735246 9.12529507 -13.38172649 7.18105412 -13 4 C-9.35007748 -0.33428299 -5.36949645 -1.08255977 0 0 Z" transform="translate(294,288)"/><path fill="#A2242F" d="M0 0 C3.12290635 0.48578543 5.99580359 0.9986012 9 2 C8.42084076 9.23949048 5.90773178 13.42307915 0.625 18.25 C-4.64093483 22.52997256 -9.27102052 23.26915918 -16 23 C-16 20.03 -16 17.06 -16 14 C-14.5975 13.608125 -13.195 13.21625 -11.75 12.8125 C-5.96943847 10.87356557 -4.05982459 8.00609654 -1.25 2.6875 C-0.8375 1.800625 -0.425 0.91375 0 0 Z" transform="translate(346,166)"/><path fill="#A11E29" d="M0 0 C10.56 0 21.12 0 32 0 C32 2.31 32 4.62 32 7 C30 9 30 9 27.01904297 9.22705078 C25.77268066 9.21657715 24.52631836 9.20610352 23.2421875 9.1953125 C22.57913605 9.1924826 21.91608459 9.18965271 21.23294067 9.18673706 C19.11344417 9.17553435 16.99436896 9.15043051 14.875 9.125 C13.43880818 9.11497028 12.00260975 9.10584441 10.56640625 9.09765625 C7.04413372 9.075595 3.52210797 9.04106494 0 9 C0 6.03 0 3.06 0 0 Z" transform="translate(258,180)"/><path fill="#A2212C" d="M0 0 C6.13370666 -0.52201759 10.77315082 0.6813656 16 4 C20.32303437 8.00311342 24.84634368 12.61956098 25.125 18.75 C25.08375 19.4925 25.0425 20.235 25 21 C22.03 21.33 19.06 21.66 16 22 C15.62488281 21.38511719 15.24976563 20.77023438 14.86328125 20.13671875 C10.70255844 13.56550162 7.31116693 10.71557629 0 8 C0 5.36 0 2.72 0 0 Z" transform="translate(330,128)"/><path fill="#A11E29" d="M0 0 C9.57 0 19.14 0 29 0 C29 6 29 6 27.8737793 7.85668945 C25.19269999 9.49258449 23.14503749 9.33870787 20.01953125 9.29296875 C18.85615234 9.28330078 17.69277344 9.27363281 16.49414062 9.26367188 C15.27919922 9.23853516 14.06425781 9.21339844 12.8125 9.1875 C11.58595703 9.17396484 10.35941406 9.16042969 9.09570312 9.14648438 C6.06336336 9.11108741 3.03190004 9.0617076 0 9 C0 6.03 0 3.06 0 0 Z" transform="translate(258,153)"/><path fill="#F3EFF0" d="M0 0 C2.31 0 4.62 0 7 0 C7.33 0.99 7.66 1.98 8 3 C8.66 2.34 9.32 1.68 10 1 C11.32 1 12.64 1 14 1 C14 3.31 14 5.62 14 8 C12.02 8.66 10.04 9.32 8 10 C7.67 14.29 7.34 18.58 7 23 C4.69 23 2.38 23 0 23 C0 15.41 0 7.82 0 0 Z" transform="translate(503,288)"/><path fill="#F9F2F3" d="M0 0 C2.31 0 4.62 0 7 0 C7 9.24 7 18.48 7 28 C4.69 28 2.38 28 0 28 C0 18.76 0 9.52 0 0 Z" transform="translate(225,283)"/><path fill="#F5EDED" d="M0 0 C2.31 0 4.62 0 7 0 C7 7.59 7 15.18 7 23 C4.69 23 2.38 23 0 23 C0 15.41 0 7.82 0 0 Z" transform="translate(270,288)"/><path fill="#822133" d="M0 0 C3 0.25 3 0.25 5 2.25 C4.625 5.875 4.625 5.875 4 9.25 C-1.44736842 10.58157895 -1.44736842 10.58157895 -3.875 9.125 C-5.3568671 6.65522151 -5.3633156 5.08386167 -5 2.25 C-3 0.25 -3 0.25 0 0 Z" transform="translate(436,294.75)"/><path fill="#8E2434" d="M0 0 C3 0.25 3 0.25 5 2.25 C4.625 5.875 4.625 5.875 4 9.25 C-1.44736842 10.58157895 -1.44736842 10.58157895 -3.875 9.125 C-5.3568671 6.65522151 -5.3633156 5.08386167 -5 2.25 C-3 0.25 -3 0.25 0 0 Z" transform="translate(383,294.75)"/><path fill="#7A182C" d="M0 0 C2.9375 0.1875 2.9375 0.1875 3.9375 1.1875 C4.07865161 3.85808851 3.97997107 6.51182238 3.9375 9.1875 C-1.50986842 10.51907895 -1.50986842 10.51907895 -3.9375 9.0625 C-5.4193671 6.59272151 -5.4258156 5.02136167 -5.0625 2.1875 C-3.0625 0.1875 -3.0625 0.1875 0 0 Z" transform="translate(463.0625,294.8125)"/><path fill="#F7EFF0" d="M0 0 C2.33944736 0.28730055 4.6739143 0.61936779 7 1 C7.042721 2.66611905 7.04063832 4.33382885 7 6 C6 7 6 7 3 7.125 C0 7 0 7 -1 6 C-1.125 3.5 -1.125 3.5 -1 1 C-0.67 0.67 -0.34 0.34 0 0 Z" transform="translate(271,279)"/><path fill="#AF1E29" d="M0 0 C2.31 0 4.62 0 7 0 C7 0.66 7 1.32 7 2 C8.32 2.66 9.64 3.32 11 4 C11 4.33 11 4.66 11 5 C7.37 5 3.74 5 0 5 C0 3.35 0 1.7 0 0 Z" transform="translate(128,300)"/><path fill="#A71D2A" d="M0 0 C1.98 0 3.96 0 6 0 C6.38218767 1.65614657 6.71395102 3.32457024 7 5 C6 6 6 6 2.9375 6.0625 C1.4834375 6.0315625 1.4834375 6.0315625 0 6 C0 4.02 0 2.04 0 0 Z" transform="translate(252,289)"/><path fill="#A11F2A" d="M0 0 C1.98 0 3.96 0 6 0 C6.38218767 1.65614657 6.71395102 3.32457024 7 5 C6 6 6 6 2.9375 6.0625 C1.4834375 6.0315625 1.4834375 6.0315625 0 6 C0 4.02 0 2.04 0 0 Z" transform="translate(207,289)"/><path fill="#AE474F" d="M0 0 C0.66 0.33 1.32 0.66 2 1 C2.6328125 3.06640625 2.6328125 3.06640625 3.125 5.5625 C3.29257813 6.38878906 3.46015625 7.21507812 3.6328125 8.06640625 C3.75398437 8.70449219 3.87515625 9.34257812 4 10 C2.02 10 0.04 10 -2 10 C-1.34 6.7 -0.68 3.4 0 0 Z" transform="translate(182,291)"/><path fill="#AE4953" d="M0 0 C0.66 0.99 1.32 1.98 2 3 C-2.51718381 4.36884358 -5.58774263 3.47075246 -10 2 C-10.33 2.66 -10.66 3.32 -11 4 C-11 3.01 -11 2.02 -11 1 C-3.52173913 -0.39130435 -3.52173913 -0.39130435 0 0 Z" transform="translate(291,302)"/><path fill="#731026" d="M0 0 C4.95 0 9.9 0 15 0 C15 0.33 15 0.66 15 1 C12.36 1 9.72 1 7 1 C7 1.66 7 2.32 7 3 C5.02 3 3.04 3 1 3 C0.67 2.01 0.34 1.02 0 0 Z" transform="translate(485,302)"/><path fill="#853948" d="M0 0 C2.97 0.495 2.97 0.495 6 1 C6 1.99 6 2.98 6 4 C3.36 4 0.72 4 -2 4 C-1.34 2.68 -0.68 1.36 0 0 Z" transform="translate(487,294)"/></svg>